<svg viewBox="0 0 24 24" xmlns="http://www.w3.org/2000/svg"><g data-name="bill alternatif"><path d="M21 1H3a2 2 0 0 0-2 2v19a1 1 0 0 0 1 1c.46 0 .48-.1 2.5-1.72 2.86 2.29 2.11 2.31 5 0 2.85 2.28 2.11 2.32 5 0 2.86 2.29 2.11 2.31 5 0 2 1.65 2.24 1.95 2.92 1.62S23 23.47 23 3a2 2 0 0 0-2-2Zm0 18.92c-1.67-1.35-1.27-1.38-4 .8-2.85-2.28-2.11-2.32-5 0-2.85-2.28-2.1-2.32-5 0-2.58-2.06-2.22-2.23-4-.79V3h18Z" fill="#000000" class="fill-000000"></path><path d="M12.5 14H10a1 1 0 0 0 0 2h1v1a1 1 0 0 0 2 0v-1a2.5 2.5 0 0 0-.5-5c-.66 0-1.5.16-1.5-.5a.5.5 0 0 1 .5-.5H14a1 1 0 0 0 0-2h-1V7a1 1 0 0 0-2 0v1.05a2.5 2.5 0 0 0 .5 4.95h1a.5.5 0 0 1 0 1Z" fill="#000000" class="fill-000000"></path></g></svg>