<svg width="28" height="28" viewBox="0 0 28 28" fill="none" xmlns="http://www.w3.org/2000/svg">
<path d="M14 25.953C20.5275 25.953 25.953 20.5275 25.953 14C25.953 7.461 20.5155 2.047 13.988 2.047C7.4495 2.047 2.0475 7.461 2.0475 14C2.0475 20.5275 7.461 25.953 14 25.953ZM14.0005 13.344C12.3715 13.332 11.0825 11.9725 11.0825 10.1565C11.0825 8.457 12.3715 7.039 14.0005 7.039C15.6175 7.039 16.9065 8.457 16.9065 10.1565C16.9065 11.9725 15.6175 13.367 14.0005 13.344ZM8.8085 19.871C8.3515 19.871 8.1285 19.566 8.1285 19.156C8.1285 17.9025 10.0155 14.6795 14 14.6795C17.9845 14.6795 19.8595 17.9025 19.8595 19.156C19.8595 19.566 19.6365 19.871 19.1915 19.871H8.8085Z" fill="black"/>
</svg>
